<?xml version="1.0" encoding="utf-8"?>
<!-- Generator: Adobe Illustrator 27.5.0, SVG Export Plug-In . SVG Version: 6.00 Build 0)  -->
<svg version="1.1" xmlns="http://www.w3.org/2000/svg" xmlns:xlink="http://www.w3.org/1999/xlink" x="0px" y="0px"
	 viewBox="0 0 2200 2200" style="enable-background:new 0 0 2200 2200;" xml:space="preserve">
<g id="Background">
	<rect style="fill:#FFFFFF;" width="2200" height="2200"/>
</g>
<g id="Objects">
	<g>
		<path style="fill:#F7C33C;" d="M1526.411,673.58c-331.37-331.37-731.37-468.64-893.42-306.59
			c-345.87,345.88-428.85,840.13-222.27,1180.3c10.25,16.88,11.02,38.04,1.6,55.41c-32.99,60.86-30.28,130.46,12.13,172.88
			c42.39,42.39,112.01,45.12,172.89,12.12c17.36-9.41,38.52-8.65,55.39,1.6c340.19,206.56,834.4,123.58,1180.27-222.3
			C1995.051,1404.95,1857.791,1004.95,1526.411,673.58z M1781.561,1515.56c-56.11,56.11-172.81,62.62-312.16,17.41
			c-77.67-25.19-158.52-64.72-240.31-117.48c-85.5-55.15-167.98-122.25-245.16-199.42c-77.18-77.18-144.27-159.66-199.42-245.16
			c-52.77-81.8-92.29-162.65-117.49-240.31c-45.2-139.36-38.69-256.06,17.42-312.17s172.81-62.62,312.16-17.41
			c77.66,25.19,158.52,64.72,240.31,117.48c85.5,55.15,167.98,122.25,245.16,199.43c77.18,77.17,144.27,159.66,199.42,245.16
			c52.77,81.79,92.29,162.64,117.49,240.3C1844.181,1342.75,1837.671,1459.45,1781.561,1515.56z"/>
		<path style="fill:#F7C33C;" d="M1541.164,865.774c16.462,20.651,18.392,39.734,4.109,41.256l-231.889,24.715
			c-16.826,1.787-46.918-28.305-45.131-45.131l24.715-231.889c1.522-14.283,20.605-12.353,41.256,4.109
			c36.8,29.337,73.459,62.023,109.188,97.752S1511.827,828.974,1541.164,865.774z"/>
		<path style="fill:#F7C33C;" d="M1151.911,532.439c20.765,12.25,39.246,36.364,39.952,52.191l11.464,256.971
			c0.826,18.638-29.757,6.664-45.868-17.957L935.441,484.241c-13.675-20.905-10.801-36.658,6.153-34.141
			c30.213,4.484,63.644,13.665,99.956,27.881C1077.862,492.197,1114.908,510.608,1151.911,532.439z"/>
		<path style="fill:#F7C33C;" d="M810.161,453.662c12.904-3.326,37.111,11.693,52.392,32.554l248.101,338.697
			c17.994,24.571,4.835,37.73-19.735,19.736L752.221,596.548c-20.861-15.281-35.88-39.489-32.554-52.392
			c5.927-22.995,16.548-42.698,32.171-58.322C767.462,470.21,787.166,459.589,810.161,453.662z"/>
		<path style="fill:#F7C33C;" d="M716.104,675.59c-2.516-16.954,13.236-19.828,34.141-6.153l339.404,222.019
			c24.622,16.11,36.595,46.693,17.957,45.867l-256.971-11.464c-15.828-0.706-39.941-19.188-52.191-39.952
			c-21.831-37.004-40.243-74.05-54.459-110.361C729.769,739.234,720.588,705.802,716.104,675.59z"/>
		<path style="fill:#F7C33C;" d="M924.839,1068.219c-16.462-20.651-18.392-39.734-4.109-41.256l231.889-24.715
			c16.826-1.787,46.918,28.305,45.131,45.131l-24.715,231.889c-1.522,14.283-20.605,12.353-41.256-4.109
			c-36.8-29.337-73.459-62.024-109.188-97.752C986.862,1141.679,954.175,1105.02,924.839,1068.219z"/>
		<path style="fill:#F7C33C;" d="M1314.091,1401.554c-20.765-12.25-39.246-36.364-39.952-52.192l-11.464-256.971
			c-0.826-18.638,29.757-6.664,45.868,17.957l222.019,339.404c13.675,20.905,10.801,36.657-6.153,34.141
			c-30.213-4.484-63.644-13.665-99.956-27.881C1388.141,1441.797,1351.095,1423.385,1314.091,1401.554z"/>
		<path style="fill:#F7C33C;" d="M1655.842,1480.331c-12.904,3.326-37.111-11.693-52.392-32.554l-248.101-338.697
			c-17.994-24.571-4.835-37.73,19.736-19.735l338.697,248.101c20.861,15.281,35.88,39.489,32.554,52.392
			c-5.927,22.995-16.547,42.698-32.172,58.322C1698.54,1463.784,1678.837,1474.404,1655.842,1480.331z"/>
		<path style="fill:#F7C33C;" d="M1749.898,1258.404c2.516,16.954-13.236,19.828-34.141,6.153l-339.404-222.019
			c-24.622-16.11-36.595-46.693-17.957-45.868l256.971,11.464c15.828,0.706,39.941,19.188,52.191,39.952
			c21.831,37.004,40.243,74.05,54.459,110.361C1736.234,1194.759,1745.414,1228.191,1749.898,1258.404z"/>
		
			<ellipse transform="matrix(0.7071 -0.7071 0.7071 0.7071 -322.6322 1155.0903)" style="fill:#F7C33C;" cx="1233.001" cy="966.997" rx="31.734" ry="72.568"/>
	</g>
</g>
</svg>
